<svg width="59" height="59" viewBox="0 0 59 59" fill="none" xmlns="http://www.w3.org/2000/svg">
<path fill-rule="evenodd" clip-rule="evenodd" d="M29.9042 0.90918C35.3128 0.970898 40.1989 2.30017 44.5626 4.89699C48.8742 7.44197 52.4608 11.0505 54.9795 15.3776C57.5605 19.7676 58.8818 24.6833 58.9433 30.1248C58.79 37.5701 56.4417 43.9291 51.8984 49.2019C47.355 54.4746 41.5361 57.7366 35.5123 58.9871V38.1128H41.2073L42.4952 29.9097H33.8717V24.5369C33.8238 23.423 34.1761 22.3288 34.8647 21.4521C35.5544 20.573 36.7688 20.1109 38.508 20.0659H43.7155V12.8802C43.6408 12.8562 42.9318 12.7611 41.5885 12.595C40.0651 12.4168 38.5332 12.3216 36.9994 12.3098C33.5281 12.3258 30.7828 13.305 28.7634 15.2474C26.7439 17.1892 25.7124 19.9986 25.6686 23.6756V29.9097H19.1061V38.1128H25.6686V58.9871C18.2724 57.7366 12.4534 54.4746 7.91004 49.2019C3.36668 43.9291 1.01848 37.5701 0.865173 30.1248C0.926509 24.683 2.24774 19.7673 4.82888 15.3776C7.34756 11.0505 10.9342 7.44197 15.2459 4.89699C19.6094 2.30067 24.4955 0.971398 29.9042 0.90918Z" fill="#55281D"/>
</svg>
