<svg width="46" height="28" viewBox="0 0 46 28" fill="none" xmlns="http://www.w3.org/2000/svg">
<path d="M1.75 2.5C1.05965 2.5 0.5 1.94035 0.5 1.25C0.5 0.55965 1.05965 0 1.75 0H44.25C44.9403 0 45.5 0.55965 45.5 1.25C45.5 1.94035 44.9403 2.5 44.25 2.5H1.75ZM1.75 15C1.05965 15 0.5 14.4403 0.5 13.75C0.5 13.0598 1.05965 12.5 1.75 12.5H44.25C44.9403 12.5 45.5 13.0598 45.5 13.75C45.5 14.4403 44.9403 15 44.25 15H1.75ZM1.75 27.5C1.05965 27.5 0.5 26.9403 0.5 26.25C0.5 25.5597 1.05965 25 1.75 25H44.25C44.9403 25 45.5 25.5597 45.5 26.25C45.5 26.9403 44.9403 27.5 44.25 27.5H1.75Z" fill="#55281D"/>
</svg>
