<svg width="60" height="60" viewBox="0 0 60 60" fill="none" xmlns="http://www.w3.org/2000/svg">
<path d="M30.5905 60.0001C30.3918 60.0001 30.1932 60.0001 29.9931 59.9992C25.2901 60.0106 20.9445 59.8911 16.7184 59.6339C12.8439 59.3981 9.30725 58.0592 6.49017 55.7621C3.77197 53.5456 1.91574 50.5486 0.973206 46.8554C0.152893 43.6401 0.109406 40.4838 0.067749 37.431C0.0375366 35.2406 0.00640869 32.645 0 30.0056C0.00640869 27.3551 0.0375366 24.7596 0.067749 22.5692C0.109406 19.5168 0.152893 16.3605 0.973206 13.1448C1.91574 9.45152 3.77197 6.45454 6.49017 4.23805C9.30725 1.94099 12.8439 0.602035 16.7189 0.366287C20.945 0.109481 25.2914 -0.0104528 30.0046 0.000991342C34.709 -0.00907946 39.0532 0.109481 43.2793 0.366287C47.1538 0.602035 50.6904 1.94099 53.5075 4.23805C56.2262 6.45454 58.082 9.45152 59.0245 13.1448C59.8448 16.3601 59.8883 19.5168 59.93 22.5692C59.9602 24.7596 59.9917 27.3551 59.9977 29.9946V30.0056C59.9917 32.645 59.9602 35.2406 59.93 37.431C59.8883 40.4833 59.8453 43.6396 59.0245 46.8554C58.082 50.5486 56.2262 53.5456 53.5075 55.7621C50.6904 58.0592 47.1538 59.3981 43.2793 59.6339C39.2322 59.8801 35.0748 60.0001 30.5905 60.0001ZM29.9931 55.3117C34.6197 55.3226 38.8678 55.2059 42.9945 54.9551C45.9242 54.777 48.4643 53.8262 50.5453 52.1293C52.4689 50.5605 53.7936 48.3962 54.4826 45.6963C55.1655 43.0198 55.2049 40.1459 55.2429 37.3669C55.2727 35.1911 55.3038 32.6139 55.3102 30.0001C55.3038 27.3858 55.2727 24.809 55.2429 22.6333C55.2049 19.8542 55.1655 16.9804 54.4826 14.3034C53.7936 11.6035 52.4689 9.43916 50.5453 7.87041C48.4643 6.17393 45.9242 5.22316 42.9945 5.04509C38.8678 4.79378 34.6197 4.67796 30.0041 4.68803C25.3784 4.67705 21.1299 4.79378 17.0032 5.04509C14.0735 5.22316 11.5334 6.17393 9.45236 7.87041C7.52884 9.43916 6.20407 11.6035 5.51514 14.3034C4.83215 16.9804 4.79278 19.8537 4.75479 22.6333C4.72504 24.8109 4.69391 27.3894 4.6875 30.0056C4.69391 32.6102 4.72504 35.1893 4.75479 37.3669C4.79278 40.1459 4.83215 43.0198 5.51514 45.6963C6.20407 48.3962 7.52884 50.5605 9.45236 52.1293C11.5334 53.8258 14.0735 54.7765 17.0032 54.9546C21.1299 55.2059 25.3793 55.3231 29.9931 55.3117ZM29.8814 44.6485C21.8047 44.6485 15.233 38.0773 15.233 30.0001C15.233 21.9228 21.8047 15.3516 29.8814 15.3516C37.9587 15.3516 44.5299 21.9228 44.5299 30.0001C44.5299 38.0773 37.9587 44.6485 29.8814 44.6485ZM29.8814 20.0391C24.3892 20.0391 19.9205 24.5078 19.9205 30.0001C19.9205 35.4923 24.3892 39.961 29.8814 39.961C35.3741 39.961 39.8424 35.4923 39.8424 30.0001C39.8424 24.5078 35.3741 20.0391 29.8814 20.0391ZM46.1705 10.6641C44.2291 10.6641 42.6549 12.2379 42.6549 14.1798C42.6549 16.1216 44.2291 17.6954 46.1705 17.6954C48.1123 17.6954 49.6861 16.1216 49.6861 14.1798C49.6861 12.2379 48.1123 10.6641 46.1705 10.6641Z" fill="#55281D"/>
</svg>
