<svg width="49" height="50" viewBox="0 0 49 50" fill="none" xmlns="http://www.w3.org/2000/svg">
<path d="M48 25.7199C48.36 11.9799 37.32 0.81995 23.64 0.99995C10.5 1.17995 -0.12 12.0399 -5.56465e-08 25.1799C0.0599999 34.5999 5.58 42.6999 13.5 46.5999C13.98 46.8399 14.52 46.4799 14.46 45.9399C14.4 44.3799 14.46 42.7599 14.76 41.4399C15.06 40.1199 16.26 35.0799 17.04 31.7799C17.4 30.1599 17.46 28.4799 17.16 26.8599C17.04 26.3199 16.98 25.7199 16.98 24.9999C16.98 21.4599 19.02 18.8199 21.6 18.8199C23.76 18.8199 24.84 20.4399 24.84 22.4199C24.84 24.5799 23.46 27.8799 22.74 30.9399C22.14 33.4599 24 35.5599 26.52 35.5599C31.08 35.5599 34.56 30.7599 34.56 23.8599C34.56 17.7399 30.18 13.4799 23.88 13.4799C16.62 13.4799 12.36 18.9399 12.36 24.5799C12.36 26.7999 13.2 29.1399 14.28 30.3999C14.46 30.6399 14.52 30.8799 14.46 31.1199C14.28 31.8999 13.86 33.6399 13.74 33.9999C13.62 34.4799 13.38 34.5399 12.9 34.3599C9.72 32.7999 7.68 28.1199 7.68 24.3999C7.68 16.3599 13.5 8.97995 24.54 8.97995C33.36 8.97995 40.26 15.2799 40.26 23.7399C40.26 32.5599 34.74 39.5799 27 39.5799C24.96 39.5799 23.04 38.7399 21.9 37.5999C21.54 37.2399 20.94 37.4199 20.82 37.8999C20.4 39.3999 19.8 41.9199 19.56 42.6999C19.2 44.1399 18.42 45.8199 17.58 47.3199C17.34 47.6799 17.58 48.2199 18 48.2799C19.98 48.7599 22.02 49.0599 24.12 48.9999C36.84 48.8799 47.64 38.3199 48 25.7199Z" fill="#55281D"/>
</svg>
