<svg width="49" height="40" viewBox="0 0 49 40" fill="none" xmlns="http://www.w3.org/2000/svg">
<path d="M48.94 5.12C47.14 5.9 45.28 6.44 43.3 6.68C45.34 5.48 46.9 3.56 47.62 1.22C45.7 2.36 43.6 3.14 41.38 3.62C39.58 1.7 37 0.5 34.18 0.5C28.72 0.5 24.34 4.94 24.34 10.34C24.34 11.12 24.4 11.84 24.58 12.56C16.42 12.2 9.22 8.24 4.36 2.3C0.880003 8.54 4.78 13.7 7.36 15.44C5.8 15.44 4.24 14.96 2.92 14.24C2.92 19.1 6.34 23.12 10.78 24.02C9.82 24.32 7.66 24.5 6.34 24.2C7.6 28.1 11.26 30.98 15.52 31.04C12.16 33.68 7.24 35.78 0.940002 35.12C5.32 37.94 10.48 39.56 16.06 39.56C34.18 39.56 44.02 24.56 44.02 11.6C44.02 11.18 44.02 10.76 43.96 10.34C46 8.84 47.68 7.1 48.94 5.12Z" fill="#55281D"/>
</svg>
