<svg width="140" height="28" viewBox="0 0 140 28" fill="none" xmlns="http://www.w3.org/2000/svg">
<g clip-path="url(#clip0_49_226)">
<path d="M36.235 7.59698V23.6677H33.2079V7.59698H28.26V5.02466H41.1575V7.59698H36.235Z" fill="white"/>
<path d="M43.8665 13.5184C44.1634 12.7204 44.5534 12.1304 45.0367 11.7483C45.5285 11.3663 46.1348 11.1753 46.8556 11.1753C47.2457 11.1753 47.6273 11.222 48.0004 11.3154C48.382 11.4088 48.7551 11.5446 49.1197 11.7229L48.1276 14.066C47.8901 13.8962 47.6315 13.7731 47.3516 13.6967C47.0803 13.6118 46.7751 13.5694 46.4359 13.5694C45.5201 13.5694 44.8629 13.9387 44.4644 14.6773C44.0658 15.4074 43.8665 16.6383 43.8665 18.3702V23.6677H41.1064V11.5701H43.8665V13.5184Z" fill="white"/>
<path d="M62.0428 23.6677H59.2827V22.1013C58.7908 22.7975 58.2142 23.3154 57.5528 23.6549C56.8999 23.9945 56.1494 24.1643 55.3015 24.1643C53.597 24.1643 52.2531 23.5828 51.2694 22.4197C50.2942 21.2482 49.8066 19.6479 49.8066 17.6189C49.8066 15.6917 50.307 14.1381 51.3076 12.9581C52.3082 11.7696 53.614 11.1753 55.2251 11.1753C56.2088 11.1753 57.0483 11.3833 57.7436 11.7993C58.4474 12.2068 58.9604 12.7968 59.2827 13.5694V11.5955H62.0428V23.6677ZM59.359 17.5934C59.359 16.3454 59.0664 15.3734 58.4813 14.6773C57.9047 13.9811 57.0949 13.6331 56.0519 13.6331C55.0089 13.6331 54.1864 13.9938 53.5844 14.7154C52.9907 15.4286 52.694 16.4219 52.694 17.6953C52.694 18.9772 52.9823 19.9662 53.5589 20.6624C54.1355 21.3585 54.9495 21.7066 56.001 21.7066C56.9931 21.7066 57.7987 21.3288 58.4177 20.5732C59.0452 19.8177 59.359 18.8244 59.359 17.5934Z" fill="white"/>
<path d="M70.094 24.3934L63.7725 11.5955H66.7872L69.4197 17.6697C69.5047 17.8565 69.6064 18.1367 69.7255 18.5102C69.8439 18.8838 69.9672 19.3294 70.094 19.8473C70.179 19.4822 70.2765 19.1215 70.3866 18.7649C70.5056 18.3998 70.645 18.0348 70.8066 17.6697L73.4265 11.5955H76.4287L70.094 24.3934Z" fill="white"/>
<path d="M89.7836 18.0391H80.1421C80.2103 19.1682 80.5454 20.0511 81.1473 20.6879C81.7491 21.3161 82.5503 21.6302 83.5512 21.6302C84.4414 21.6302 85.1833 21.4434 85.7768 21.0699C86.3703 20.6963 86.8879 20.0936 87.3288 19.2616L89.6562 20.5605C88.9783 21.7745 88.1389 22.6786 87.138 23.2729C86.1376 23.8672 84.9632 24.1643 83.6146 24.1643C81.6815 24.1643 80.1421 23.5743 78.9976 22.3943C77.8531 21.2142 77.2805 19.6394 77.2805 17.6698C77.2805 15.7766 77.8698 14.223 79.0485 13.0091C80.2355 11.7866 81.7575 11.1753 83.6146 11.1753C85.5567 11.1753 87.0703 11.7314 88.1556 12.8435C89.2409 13.9557 89.7836 15.5135 89.7836 17.517V18.0391ZM86.922 16.1799C86.8113 15.314 86.481 14.656 85.9294 14.2061C85.3784 13.7476 84.6239 13.5184 83.6655 13.5184C82.7585 13.5184 82.0291 13.7391 81.4781 14.1806C80.9265 14.622 80.5406 15.2885 80.3204 16.1799H86.922Z" fill="white"/>
<path d="M92.7983 23.6676V3.92944H95.5582V23.6676H92.7983Z" fill="white"/>
<path d="M99.6411 23.6676V3.92944H102.402V23.6676H99.6411Z" fill="white"/>
<path d="M106.115 6.37441C106.115 5.90748 106.285 5.50423 106.624 5.16465C106.972 4.82507 107.383 4.65527 107.858 4.65527C108.35 4.65527 108.757 4.82082 109.079 5.15191C109.41 5.47452 109.575 5.88201 109.575 6.37441C109.575 6.86681 109.41 7.2828 109.079 7.62239C108.748 7.95348 108.341 8.11903 107.858 8.11903C107.383 8.11903 106.972 7.94923 106.624 7.60964C106.285 7.26156 106.115 6.84982 106.115 6.37441ZM106.484 23.6676V11.5955H109.244V23.6676H106.484Z" fill="white"/>
<path d="M124.546 23.6677H121.786V22.1013C121.294 22.7975 120.717 23.3154 120.056 23.6549C119.403 23.9945 118.652 24.1643 117.805 24.1643C116.1 24.1643 114.756 23.5828 113.773 22.4197C112.797 21.2482 112.31 19.6479 112.31 17.6189C112.31 15.6917 112.81 14.1381 113.811 12.9581C114.811 11.7696 116.117 11.1753 117.728 11.1753C118.712 11.1753 119.552 11.3833 120.247 11.7993C120.95 12.2068 121.464 12.7968 121.786 13.5694V11.5955H124.546V23.6677ZM121.862 17.5934C121.862 16.3454 121.57 15.3734 120.984 14.6773C120.408 13.9811 119.598 13.6331 118.555 13.6331C117.512 13.6331 116.689 13.9938 116.087 14.7154C115.494 15.4286 115.197 16.4219 115.197 17.6953C115.197 18.9772 115.486 19.9662 116.062 20.6624C116.638 21.3585 117.453 21.7066 118.504 21.7066C119.496 21.7066 120.302 21.3288 120.921 20.5732C121.548 19.8177 121.862 18.8244 121.862 17.5934Z" fill="white"/>
<path d="M128.361 23.6677V11.5955H130.956V13.5694C131.508 12.7374 132.156 12.1304 132.902 11.7483C133.648 11.3663 134.556 11.1753 135.625 11.1753C136.523 11.1753 137.287 11.3197 137.914 11.6083C138.55 11.8885 139.046 12.3087 139.402 12.869C139.614 13.2001 139.767 13.5863 139.86 14.0278C139.953 14.4692 140 15.2418 140 16.3454V23.6677H137.214V17.4661C137.214 15.8785 137.019 14.8258 136.629 14.3079C136.247 13.7816 135.565 13.5184 134.581 13.5184C133.937 13.5184 133.361 13.6373 132.852 13.875C132.351 14.1127 131.957 14.4481 131.669 14.881C131.465 15.1697 131.321 15.5432 131.236 16.0016C131.16 16.4516 131.122 17.1732 131.122 18.1664V23.6677H128.361Z" fill="white"/>
<path d="M8.64111 20.1308L12.181 23.6205L15.7208 20.1308L12.181 16.6413L8.64111 20.1308ZM12.181 3.19536V3.2006C11.1678 3.2006 10.1547 3.58192 9.38281 4.34281L9.37928 4.33932C8.60916 5.10021 8.22237 6.10073 8.22237 7.10127C8.22237 8.10353 8.60743 9.10232 9.37569 9.85969H9.38102L12.181 12.6182L14.9792 9.85969H14.9845C15.7581 9.09705 16.1449 8.09827 16.1449 7.10127H16.1395C16.1395 6.10249 15.7528 5.10371 14.9809 4.34281C14.2037 3.57842 13.1906 3.19536 12.181 3.19536ZM17.7613 22.1424L13.2012 26.6378L12.181 27.6436L11.1607 26.6378L6.60064 22.1424L2.04051 26.6378L0 24.6262L10.1422 14.6297L7.34408 11.8713L7.34761 11.8678C6.00797 10.5489 5.33904 8.82244 5.33904 7.10127C5.33904 5.37833 6.00797 3.65364 7.34408 2.33651V2.33301C8.68018 1.01589 10.4314 0.356445 12.181 0.356445V0.361693C13.9341 0.361693 15.6871 1.01938 17.0196 2.33301C18.3557 3.65014 19.0229 5.37658 19.0229 7.10301H19.0176C19.0176 8.8277 18.3504 10.5524 17.0161 11.8695L17.0196 11.873L14.2215 14.6297L24.362 24.6262L22.3214 26.6378L17.7613 22.1424Z" fill="white"/>
</g>
<defs>
<clipPath id="clip0_49_226">
<rect width="140" height="27.5214" fill="white" transform="translate(0 0.239258)"/>
</clipPath>
</defs>
</svg>
